# xmcd
#
# Track frame offsets:
# 150
# 13155
# 25187
# 37122
# 49820
# 61427
# 74620
# 86930
# 99780
# 111707
# 123860
# 135205
# 147842
# 159015
# 169545
#
# Disc length: 2390 seconds
#
#
# Revision: 0
# Processed by: cddbd v1.5.2PL0 Copyright (c) Steve Scherf et al.
# Submitted via: FreeRIP 2.95 
#
DISCID=c909540f
DTITLE=Living The Blues Classics 1953-1954 CD2
DYEAR=1900
DGENRE=Blues
TTITLE0=Rufus Thomas  Bear Cat
TTITLE1=Littel willie Littlefield  K.C. Loving
TTITLE2=Eillie Mabon  I'm Mad
TTITLE3=Amo Milburn  let Me Go Home Whiskey
TTITLE4=Clarence "Gatemouth" Brown  Okie Dokie Stomp
TTITLE5=Howlin' Wolf  Evil
TTITLE6=Smiley Lewis  Blue Monday
TTITLE7=Mercy Dee  One RoomCountry Shack
TTITLE8=Young John Watson  Space Guitar
TTITLE9=Billy Ward and His Dominoes  Rags To Riches
TTITLE10=Midnighters  Sexy Ways
TTITLE11=Memphis Slim and His House Rocker  The Come Back
TTITLE12=Anisteen Allen  Baby I'm Doing It
TTITLE13=Tiny Bradshaw  Heavy Juice
TTITLE14=Fats Domino  You Done Me Wrong
EXTD=
EXTT0=
EXTT1=
EXTT2=
EXTT3=
EXTT4=
EXTT5=
EXTT6=
EXTT7=
EXTT8=
EXTT9=
EXTT10=
EXTT11=
EXTT12=
EXTT13=
EXTT14=
PLAYORDER=
